<mxfile host="app.diagrams.net" modified="2024-01-06T13:29:46.796Z" agent="Mozilla/5.0 (Macintosh; Intel Mac OS X 10_15_7) AppleWebKit/605.1.15 (KHTML, like Gecko) Version/16.6 Safari/605.1.15" etag="AWBsdGLbPTUQiNpNAT1B" version="22.1.16" type="github">
  <diagram name="Strona-1" id="KUUmrmwPtCSlWXp_8sOf">
    <mxGraphModel dx="838" dy="553" grid="0" gridSize="10" guides="1" tooltips="1" connect="1" arrows="1" fold="1" page="0" pageScale="1" pageWidth="827" pageHeight="1169" math="0" shadow="0">
      <root>
        <mxCell id="0" />
        <mxCell id="1" parent="0" />
        <mxCell id="r2pnUwaAXKdmra2XtnZp-1" value="" style="rounded=1;whiteSpace=wrap;html=1;" parent="1" vertex="1">
          <mxGeometry x="220" y="140" width="400" height="270" as="geometry" />
        </mxCell>
        <mxCell id="r2pnUwaAXKdmra2XtnZp-11" value="" style="edgeStyle=orthogonalEdgeStyle;rounded=0;orthogonalLoop=1;jettySize=auto;html=1;" parent="1" source="r2pnUwaAXKdmra2XtnZp-3" target="r2pnUwaAXKdmra2XtnZp-7" edge="1">
          <mxGeometry relative="1" as="geometry" />
        </mxCell>
        <mxCell id="uJrMI0u5jXTCqJDOLYF4-28" value="&lt;font style=&quot;font-size: 13px;&quot;&gt;f&lt;sub&gt;(t)&lt;/sub&gt;&lt;/font&gt;" style="edgeLabel;html=1;align=center;verticalAlign=middle;resizable=0;points=[];" vertex="1" connectable="0" parent="r2pnUwaAXKdmra2XtnZp-11">
          <mxGeometry x="-0.6364" y="1" relative="1" as="geometry">
            <mxPoint as="offset" />
          </mxGeometry>
        </mxCell>
        <mxCell id="r2pnUwaAXKdmra2XtnZp-3" value="FC" style="rounded=0;whiteSpace=wrap;html=1;fillColor=#fff2cc;strokeColor=#d6b656;verticalAlign=middle;labelPosition=center;verticalLabelPosition=middle;align=center;horizontal=1;spacing=2;spacingTop=7;" parent="1" vertex="1">
          <mxGeometry x="260" y="300" width="40" height="35" as="geometry" />
        </mxCell>
        <mxCell id="r2pnUwaAXKdmra2XtnZp-4" value="FC" style="rounded=0;whiteSpace=wrap;html=1;fillColor=#fff2cc;strokeColor=#d6b656;spacingTop=7;" parent="1" vertex="1">
          <mxGeometry x="310" y="300" width="40" height="35" as="geometry" />
        </mxCell>
        <mxCell id="r2pnUwaAXKdmra2XtnZp-16" value="" style="edgeStyle=orthogonalEdgeStyle;rounded=0;orthogonalLoop=1;jettySize=auto;html=1;" parent="1" source="r2pnUwaAXKdmra2XtnZp-5" target="r2pnUwaAXKdmra2XtnZp-8" edge="1">
          <mxGeometry relative="1" as="geometry" />
        </mxCell>
        <mxCell id="uJrMI0u5jXTCqJDOLYF4-30" value="&lt;font style=&quot;font-size: 13px;&quot;&gt;i&lt;sub&gt;(t)&lt;/sub&gt;&lt;/font&gt;" style="edgeLabel;html=1;align=center;verticalAlign=middle;resizable=0;points=[];" vertex="1" connectable="0" parent="r2pnUwaAXKdmra2XtnZp-16">
          <mxGeometry x="-0.5143" y="-2" relative="1" as="geometry">
            <mxPoint as="offset" />
          </mxGeometry>
        </mxCell>
        <mxCell id="r2pnUwaAXKdmra2XtnZp-5" value="FC" style="rounded=0;whiteSpace=wrap;html=1;fillColor=#fff2cc;strokeColor=#d6b656;spacingTop=7;" parent="1" vertex="1">
          <mxGeometry x="360" y="300" width="40" height="35" as="geometry" />
        </mxCell>
        <mxCell id="r2pnUwaAXKdmra2XtnZp-6" value="FC" style="rounded=0;whiteSpace=wrap;html=1;fillColor=#fff2cc;strokeColor=#d6b656;spacingTop=7;" parent="1" vertex="1">
          <mxGeometry x="410" y="300" width="40" height="35" as="geometry" />
        </mxCell>
        <mxCell id="r2pnUwaAXKdmra2XtnZp-13" value="" style="edgeStyle=orthogonalEdgeStyle;rounded=0;orthogonalLoop=1;jettySize=auto;html=1;entryX=0;entryY=0.5;entryDx=0;entryDy=0;entryPerimeter=0;" parent="1" source="r2pnUwaAXKdmra2XtnZp-7" target="r2pnUwaAXKdmra2XtnZp-10" edge="1">
          <mxGeometry relative="1" as="geometry" />
        </mxCell>
        <mxCell id="r2pnUwaAXKdmra2XtnZp-7" value="" style="verticalLabelPosition=bottom;shadow=0;dashed=0;align=center;html=1;verticalAlign=top;shape=mxgraph.electrical.abstract.multiplier;" parent="1" vertex="1">
          <mxGeometry x="270" y="170" width="20" height="20" as="geometry" />
        </mxCell>
        <mxCell id="r2pnUwaAXKdmra2XtnZp-8" value="" style="verticalLabelPosition=bottom;shadow=0;dashed=0;align=center;html=1;verticalAlign=top;shape=mxgraph.electrical.abstract.multiplier;" parent="1" vertex="1">
          <mxGeometry x="370" y="210" width="20" height="20" as="geometry" />
        </mxCell>
        <mxCell id="r2pnUwaAXKdmra2XtnZp-9" value="" style="verticalLabelPosition=bottom;shadow=0;dashed=0;align=center;html=1;verticalAlign=top;shape=mxgraph.electrical.abstract.multiplier;" parent="1" vertex="1">
          <mxGeometry x="520" y="210" width="20" height="20" as="geometry" />
        </mxCell>
        <mxCell id="r2pnUwaAXKdmra2XtnZp-23" style="edgeStyle=orthogonalEdgeStyle;rounded=0;orthogonalLoop=1;jettySize=auto;html=1;entryX=0;entryY=0.5;entryDx=0;entryDy=0;" parent="1" source="r2pnUwaAXKdmra2XtnZp-10" target="r2pnUwaAXKdmra2XtnZp-22" edge="1">
          <mxGeometry relative="1" as="geometry">
            <Array as="points">
              <mxPoint x="480" y="180" />
              <mxPoint x="480" y="215" />
            </Array>
          </mxGeometry>
        </mxCell>
        <mxCell id="r2pnUwaAXKdmra2XtnZp-10" value="" style="verticalLabelPosition=bottom;verticalAlign=top;html=1;shape=mxgraph.flowchart.summing_function;" parent="1" vertex="1">
          <mxGeometry x="450" y="170" width="20" height="20" as="geometry" />
        </mxCell>
        <mxCell id="r2pnUwaAXKdmra2XtnZp-14" style="edgeStyle=orthogonalEdgeStyle;rounded=0;orthogonalLoop=1;jettySize=auto;html=1;exitX=1;exitY=0.5;exitDx=0;exitDy=0;exitPerimeter=0;entryX=0.5;entryY=1;entryDx=0;entryDy=0;entryPerimeter=0;" parent="1" source="r2pnUwaAXKdmra2XtnZp-8" target="r2pnUwaAXKdmra2XtnZp-10" edge="1">
          <mxGeometry relative="1" as="geometry" />
        </mxCell>
        <mxCell id="r2pnUwaAXKdmra2XtnZp-15" style="edgeStyle=orthogonalEdgeStyle;rounded=0;orthogonalLoop=1;jettySize=auto;html=1;entryX=0.5;entryY=1;entryDx=0;entryDy=0;entryPerimeter=0;exitX=0.5;exitY=0;exitDx=0;exitDy=0;" parent="1" source="r2pnUwaAXKdmra2XtnZp-6" target="r2pnUwaAXKdmra2XtnZp-9" edge="1">
          <mxGeometry relative="1" as="geometry" />
        </mxCell>
        <mxCell id="uJrMI0u5jXTCqJDOLYF4-31" value="&lt;font style=&quot;font-size: 13px;&quot;&gt;o&lt;sub&gt;(t)&lt;/sub&gt;&lt;/font&gt;" style="edgeLabel;html=1;align=center;verticalAlign=middle;resizable=0;points=[];" vertex="1" connectable="0" parent="r2pnUwaAXKdmra2XtnZp-15">
          <mxGeometry x="-0.7882" y="1" relative="1" as="geometry">
            <mxPoint as="offset" />
          </mxGeometry>
        </mxCell>
        <mxCell id="r2pnUwaAXKdmra2XtnZp-17" style="edgeStyle=orthogonalEdgeStyle;rounded=0;orthogonalLoop=1;jettySize=auto;html=1;entryX=0;entryY=0.5;entryDx=0;entryDy=0;entryPerimeter=0;exitX=0.5;exitY=0;exitDx=0;exitDy=0;" parent="1" source="r2pnUwaAXKdmra2XtnZp-4" target="r2pnUwaAXKdmra2XtnZp-8" edge="1">
          <mxGeometry relative="1" as="geometry" />
        </mxCell>
        <mxCell id="uJrMI0u5jXTCqJDOLYF4-29" value="&lt;font style=&quot;font-size: 13px;&quot;&gt;g&lt;sub&gt;(t)&lt;/sub&gt;&lt;/font&gt;" style="edgeLabel;html=1;align=center;verticalAlign=middle;resizable=0;points=[];" vertex="1" connectable="0" parent="r2pnUwaAXKdmra2XtnZp-17">
          <mxGeometry x="-0.7" y="-1" relative="1" as="geometry">
            <mxPoint as="offset" />
          </mxGeometry>
        </mxCell>
        <mxCell id="r2pnUwaAXKdmra2XtnZp-18" value="" style="rounded=0;whiteSpace=wrap;html=1;fillColor=#6a00ff;strokeColor=#3700CC;fontColor=#ffffff;" parent="1" vertex="1">
          <mxGeometry x="260" y="300" width="40" height="10" as="geometry" />
        </mxCell>
        <mxCell id="r2pnUwaAXKdmra2XtnZp-19" value="" style="rounded=0;whiteSpace=wrap;html=1;fillColor=#008a00;strokeColor=#005700;fontColor=#ffffff;" parent="1" vertex="1">
          <mxGeometry x="310" y="300" width="40" height="10" as="geometry" />
        </mxCell>
        <mxCell id="r2pnUwaAXKdmra2XtnZp-20" value="" style="rounded=0;whiteSpace=wrap;html=1;fillColor=#6a00ff;strokeColor=#3700CC;fontColor=#ffffff;" parent="1" vertex="1">
          <mxGeometry x="360" y="300" width="40" height="10" as="geometry" />
        </mxCell>
        <mxCell id="r2pnUwaAXKdmra2XtnZp-21" value="" style="rounded=0;whiteSpace=wrap;html=1;fillColor=#6a00ff;strokeColor=#3700CC;fontColor=#ffffff;" parent="1" vertex="1">
          <mxGeometry x="410" y="300" width="40" height="10" as="geometry" />
        </mxCell>
        <mxCell id="r2pnUwaAXKdmra2XtnZp-22" value="" style="rounded=0;whiteSpace=wrap;html=1;fillColor=#008a00;fontColor=#ffffff;strokeColor=#005700;" parent="1" vertex="1">
          <mxGeometry x="500" y="190" width="10" height="50" as="geometry" />
        </mxCell>
        <mxCell id="r2pnUwaAXKdmra2XtnZp-26" style="edgeStyle=orthogonalEdgeStyle;rounded=0;orthogonalLoop=1;jettySize=auto;html=1;exitX=1;exitY=0.5;exitDx=0;exitDy=0;entryX=0;entryY=0.5;entryDx=0;entryDy=0;entryPerimeter=0;" parent="1" source="r2pnUwaAXKdmra2XtnZp-22" target="r2pnUwaAXKdmra2XtnZp-9" edge="1">
          <mxGeometry relative="1" as="geometry" />
        </mxCell>
        <mxCell id="r2pnUwaAXKdmra2XtnZp-28" value="" style="edgeStyle=none;orthogonalLoop=1;jettySize=auto;html=1;rounded=0;" parent="1" edge="1">
          <mxGeometry width="100" relative="1" as="geometry">
            <mxPoint x="470" y="179.5" as="sourcePoint" />
            <mxPoint x="650" y="179.5" as="targetPoint" />
            <Array as="points" />
          </mxGeometry>
        </mxCell>
        <mxCell id="uJrMI0u5jXTCqJDOLYF4-20" value="&lt;font size=&quot;2&quot;&gt;c&lt;sub&gt;(t)&lt;/sub&gt;&lt;/font&gt;" style="edgeLabel;html=1;align=center;verticalAlign=middle;resizable=0;points=[];" vertex="1" connectable="0" parent="r2pnUwaAXKdmra2XtnZp-28">
          <mxGeometry x="0.7889" y="-1" relative="1" as="geometry">
            <mxPoint x="39" as="offset" />
          </mxGeometry>
        </mxCell>
        <mxCell id="r2pnUwaAXKdmra2XtnZp-29" value="" style="edgeStyle=none;orthogonalLoop=1;jettySize=auto;html=1;rounded=0;" parent="1" edge="1">
          <mxGeometry width="100" relative="1" as="geometry">
            <mxPoint x="540" y="219.5" as="sourcePoint" />
            <mxPoint x="650" y="219.5" as="targetPoint" />
            <Array as="points" />
          </mxGeometry>
        </mxCell>
        <mxCell id="uJrMI0u5jXTCqJDOLYF4-22" value="&lt;font style=&quot;font-size: 13px;&quot;&gt;h&lt;sub&gt;(t)&lt;/sub&gt;&lt;/font&gt;" style="edgeLabel;html=1;align=center;verticalAlign=middle;resizable=0;points=[];" vertex="1" connectable="0" parent="r2pnUwaAXKdmra2XtnZp-29">
          <mxGeometry x="0.7636" y="1" relative="1" as="geometry">
            <mxPoint x="33" y="2" as="offset" />
          </mxGeometry>
        </mxCell>
        <mxCell id="r2pnUwaAXKdmra2XtnZp-30" value="" style="edgeStyle=none;orthogonalLoop=1;jettySize=auto;html=1;rounded=0;startSize=6;endSize=6;" parent="1" edge="1">
          <mxGeometry width="100" relative="1" as="geometry">
            <mxPoint x="170" y="179.5" as="sourcePoint" />
            <mxPoint x="220" y="179.5" as="targetPoint" />
            <Array as="points" />
          </mxGeometry>
        </mxCell>
        <mxCell id="uJrMI0u5jXTCqJDOLYF4-19" value="&lt;font style=&quot;font-size: 13px;&quot;&gt;c&lt;sub&gt;(t-1)&lt;/sub&gt;&lt;/font&gt;" style="edgeLabel;html=1;align=center;verticalAlign=middle;resizable=0;points=[];" vertex="1" connectable="0" parent="r2pnUwaAXKdmra2XtnZp-30">
          <mxGeometry x="-0.12" y="2" relative="1" as="geometry">
            <mxPoint x="-22" y="3" as="offset" />
          </mxGeometry>
        </mxCell>
        <mxCell id="r2pnUwaAXKdmra2XtnZp-31" value="" style="edgeStyle=none;orthogonalLoop=1;jettySize=auto;html=1;rounded=0;startSize=6;endSize=6;" parent="1" edge="1">
          <mxGeometry width="100" relative="1" as="geometry">
            <mxPoint x="170" y="370" as="sourcePoint" />
            <mxPoint x="220" y="370" as="targetPoint" />
            <Array as="points" />
          </mxGeometry>
        </mxCell>
        <mxCell id="uJrMI0u5jXTCqJDOLYF4-18" value="&lt;font style=&quot;font-size: 13px;&quot;&gt;h&lt;sub&gt;(t-1)&lt;/sub&gt;&lt;/font&gt;" style="edgeLabel;html=1;align=center;verticalAlign=middle;resizable=0;points=[];" vertex="1" connectable="0" parent="r2pnUwaAXKdmra2XtnZp-31">
          <mxGeometry x="0.04" relative="1" as="geometry">
            <mxPoint x="-26" as="offset" />
          </mxGeometry>
        </mxCell>
        <mxCell id="r2pnUwaAXKdmra2XtnZp-32" value="" style="edgeStyle=none;orthogonalLoop=1;jettySize=auto;html=1;rounded=0;startSize=6;endSize=6;" parent="1" edge="1">
          <mxGeometry width="100" relative="1" as="geometry">
            <mxPoint x="359" y="450" as="sourcePoint" />
            <mxPoint x="359" y="410" as="targetPoint" />
            <Array as="points" />
          </mxGeometry>
        </mxCell>
        <mxCell id="uJrMI0u5jXTCqJDOLYF4-17" value="&lt;font style=&quot;font-size: 13px;&quot;&gt;x&lt;/font&gt;&lt;sub style=&quot;font-size: 13px;&quot;&gt;&lt;font style=&quot;font-size: 13px;&quot;&gt;(t)&lt;/font&gt;&lt;br&gt;&lt;/sub&gt;" style="edgeLabel;html=1;align=center;verticalAlign=middle;resizable=0;points=[];" vertex="1" connectable="0" parent="r2pnUwaAXKdmra2XtnZp-32">
          <mxGeometry x="-0.3" y="-1" relative="1" as="geometry">
            <mxPoint y="14" as="offset" />
          </mxGeometry>
        </mxCell>
        <mxCell id="uJrMI0u5jXTCqJDOLYF4-3" value="" style="endArrow=classic;html=1;rounded=0;entryX=0.5;entryY=1;entryDx=0;entryDy=0;" edge="1" parent="1" target="r2pnUwaAXKdmra2XtnZp-3">
          <mxGeometry width="50" height="50" relative="1" as="geometry">
            <mxPoint x="220" y="370" as="sourcePoint" />
            <mxPoint x="270" y="320" as="targetPoint" />
          </mxGeometry>
        </mxCell>
        <mxCell id="uJrMI0u5jXTCqJDOLYF4-4" value="" style="endArrow=classic;html=1;rounded=0;entryX=0.5;entryY=1;entryDx=0;entryDy=0;" edge="1" parent="1" target="r2pnUwaAXKdmra2XtnZp-4">
          <mxGeometry width="50" height="50" relative="1" as="geometry">
            <mxPoint x="220" y="370" as="sourcePoint" />
            <mxPoint x="270" y="320" as="targetPoint" />
          </mxGeometry>
        </mxCell>
        <mxCell id="uJrMI0u5jXTCqJDOLYF4-5" value="" style="endArrow=classic;html=1;rounded=0;entryX=0.5;entryY=1;entryDx=0;entryDy=0;" edge="1" parent="1" target="r2pnUwaAXKdmra2XtnZp-5">
          <mxGeometry width="50" height="50" relative="1" as="geometry">
            <mxPoint x="220" y="370" as="sourcePoint" />
            <mxPoint x="270" y="320" as="targetPoint" />
          </mxGeometry>
        </mxCell>
        <mxCell id="uJrMI0u5jXTCqJDOLYF4-7" value="" style="endArrow=classic;html=1;rounded=0;entryX=0.5;entryY=1;entryDx=0;entryDy=0;" edge="1" parent="1" target="r2pnUwaAXKdmra2XtnZp-6">
          <mxGeometry width="50" height="50" relative="1" as="geometry">
            <mxPoint x="220" y="370" as="sourcePoint" />
            <mxPoint x="270" y="320" as="targetPoint" />
          </mxGeometry>
        </mxCell>
        <mxCell id="uJrMI0u5jXTCqJDOLYF4-9" value="" style="endArrow=classic;html=1;rounded=0;entryX=0.5;entryY=1;entryDx=0;entryDy=0;" edge="1" parent="1" target="r2pnUwaAXKdmra2XtnZp-3">
          <mxGeometry width="50" height="50" relative="1" as="geometry">
            <mxPoint x="360" y="410" as="sourcePoint" />
            <mxPoint x="410" y="360" as="targetPoint" />
          </mxGeometry>
        </mxCell>
        <mxCell id="uJrMI0u5jXTCqJDOLYF4-11" value="" style="endArrow=classic;html=1;rounded=0;entryX=0.5;entryY=1;entryDx=0;entryDy=0;" edge="1" parent="1" target="r2pnUwaAXKdmra2XtnZp-4">
          <mxGeometry width="50" height="50" relative="1" as="geometry">
            <mxPoint x="360" y="410" as="sourcePoint" />
            <mxPoint x="410" y="360" as="targetPoint" />
          </mxGeometry>
        </mxCell>
        <mxCell id="uJrMI0u5jXTCqJDOLYF4-12" value="" style="endArrow=classic;html=1;rounded=0;entryX=0.5;entryY=1;entryDx=0;entryDy=0;" edge="1" parent="1" target="r2pnUwaAXKdmra2XtnZp-5">
          <mxGeometry width="50" height="50" relative="1" as="geometry">
            <mxPoint x="360" y="410" as="sourcePoint" />
            <mxPoint x="410" y="360" as="targetPoint" />
          </mxGeometry>
        </mxCell>
        <mxCell id="uJrMI0u5jXTCqJDOLYF4-13" value="" style="endArrow=classic;html=1;rounded=0;entryX=0.5;entryY=1;entryDx=0;entryDy=0;" edge="1" parent="1" target="r2pnUwaAXKdmra2XtnZp-6">
          <mxGeometry width="50" height="50" relative="1" as="geometry">
            <mxPoint x="360" y="410" as="sourcePoint" />
            <mxPoint x="410" y="360" as="targetPoint" />
          </mxGeometry>
        </mxCell>
        <mxCell id="uJrMI0u5jXTCqJDOLYF4-16" value="" style="endArrow=none;html=1;rounded=0;entryX=0;entryY=0.5;entryDx=0;entryDy=0;entryPerimeter=0;" edge="1" parent="1" target="r2pnUwaAXKdmra2XtnZp-7">
          <mxGeometry width="50" height="50" relative="1" as="geometry">
            <mxPoint x="220" y="180" as="sourcePoint" />
            <mxPoint x="270" y="130" as="targetPoint" />
          </mxGeometry>
        </mxCell>
        <mxCell id="uJrMI0u5jXTCqJDOLYF4-23" value="&lt;font style=&quot;font-size: 12px;&quot;&gt;Bramka zapomnienia&lt;/font&gt;" style="edgeLabel;html=1;align=center;verticalAlign=middle;resizable=0;points=[];" vertex="1" connectable="0" parent="uJrMI0u5jXTCqJDOLYF4-16">
          <mxGeometry x="0.4" y="4" relative="1" as="geometry">
            <mxPoint x="35" y="-16" as="offset" />
          </mxGeometry>
        </mxCell>
        <mxCell id="uJrMI0u5jXTCqJDOLYF4-26" value="&lt;font style=&quot;font-size: 12px;&quot;&gt;Bramka wejścia&lt;/font&gt;" style="edgeLabel;html=1;align=center;verticalAlign=middle;resizable=0;points=[];" vertex="1" connectable="0" parent="1">
          <mxGeometry x="380" y="200" as="geometry" />
        </mxCell>
        <mxCell id="uJrMI0u5jXTCqJDOLYF4-27" value="&lt;font style=&quot;font-size: 12px;&quot;&gt;Bramka wyjścia&lt;/font&gt;" style="edgeLabel;html=1;align=center;verticalAlign=middle;resizable=0;points=[];" vertex="1" connectable="0" parent="1">
          <mxGeometry x="530" y="275" as="geometry" />
        </mxCell>
        <mxCell id="uJrMI0u5jXTCqJDOLYF4-33" value="" style="verticalLabelPosition=bottom;shadow=0;dashed=0;align=center;html=1;verticalAlign=top;shape=mxgraph.electrical.abstract.multiplier;" vertex="1" parent="1">
          <mxGeometry x="490" y="312.5" width="10" height="10" as="geometry" />
        </mxCell>
        <mxCell id="uJrMI0u5jXTCqJDOLYF4-34" value="" style="verticalLabelPosition=bottom;verticalAlign=top;html=1;shape=mxgraph.flowchart.summing_function;" vertex="1" parent="1">
          <mxGeometry x="490" y="340" width="10" height="10" as="geometry" />
        </mxCell>
        <mxCell id="uJrMI0u5jXTCqJDOLYF4-35" value="" style="rounded=0;whiteSpace=wrap;html=1;fillColor=#008a00;strokeColor=#005700;fontColor=#ffffff;" vertex="1" parent="1">
          <mxGeometry x="482.5" y="360" width="25" height="10" as="geometry" />
        </mxCell>
        <mxCell id="uJrMI0u5jXTCqJDOLYF4-36" value="" style="rounded=0;whiteSpace=wrap;html=1;fillColor=#6a00ff;strokeColor=#3700CC;fontColor=#ffffff;" vertex="1" parent="1">
          <mxGeometry x="482.5" y="380" width="25" height="10" as="geometry" />
        </mxCell>
        <mxCell id="uJrMI0u5jXTCqJDOLYF4-37" value="sigmoid" style="text;html=1;strokeColor=none;fillColor=none;align=center;verticalAlign=middle;whiteSpace=wrap;rounded=0;" vertex="1" parent="1">
          <mxGeometry x="520" y="380" width="50" height="10" as="geometry" />
        </mxCell>
        <mxCell id="uJrMI0u5jXTCqJDOLYF4-38" value="tanh" style="text;html=1;strokeColor=none;fillColor=none;align=center;verticalAlign=middle;whiteSpace=wrap;rounded=0;" vertex="1" parent="1">
          <mxGeometry x="520" y="360" width="50" height="10" as="geometry" />
        </mxCell>
        <mxCell id="uJrMI0u5jXTCqJDOLYF4-39" value="suma" style="text;html=1;strokeColor=none;fillColor=none;align=center;verticalAlign=middle;whiteSpace=wrap;rounded=0;" vertex="1" parent="1">
          <mxGeometry x="520" y="340" width="50" height="10" as="geometry" />
        </mxCell>
        <mxCell id="uJrMI0u5jXTCqJDOLYF4-40" value="Iloczyn po elementach" style="text;html=1;strokeColor=none;fillColor=none;align=center;verticalAlign=middle;whiteSpace=wrap;rounded=0;" vertex="1" parent="1">
          <mxGeometry x="520" y="312.5" width="50" height="10" as="geometry" />
        </mxCell>
        <mxCell id="uJrMI0u5jXTCqJDOLYF4-42" value="" style="rounded=1;whiteSpace=wrap;html=1;" vertex="1" parent="1">
          <mxGeometry x="210" y="528" width="400" height="270" as="geometry" />
        </mxCell>
        <mxCell id="uJrMI0u5jXTCqJDOLYF4-46" value="FC" style="rounded=0;whiteSpace=wrap;html=1;fillColor=#fff2cc;strokeColor=#d6b656;spacingTop=7;" vertex="1" parent="1">
          <mxGeometry x="257" y="710.5" width="40" height="35" as="geometry" />
        </mxCell>
        <mxCell id="uJrMI0u5jXTCqJDOLYF4-49" value="FC" style="rounded=0;whiteSpace=wrap;html=1;fillColor=#fff2cc;strokeColor=#d6b656;spacingTop=7;" vertex="1" parent="1">
          <mxGeometry x="316" y="710.5" width="40" height="35" as="geometry" />
        </mxCell>
        <mxCell id="uJrMI0u5jXTCqJDOLYF4-50" value="FC" style="rounded=0;whiteSpace=wrap;html=1;fillColor=#fff2cc;strokeColor=#d6b656;spacingTop=7;" vertex="1" parent="1">
          <mxGeometry x="400" y="663" width="40" height="35" as="geometry" />
        </mxCell>
        <mxCell id="uJrMI0u5jXTCqJDOLYF4-51" value="" style="edgeStyle=orthogonalEdgeStyle;rounded=0;orthogonalLoop=1;jettySize=auto;html=1;entryX=0;entryY=0.5;entryDx=0;entryDy=0;entryPerimeter=0;" edge="1" parent="1" source="uJrMI0u5jXTCqJDOLYF4-52" target="uJrMI0u5jXTCqJDOLYF4-56">
          <mxGeometry relative="1" as="geometry" />
        </mxCell>
        <mxCell id="uJrMI0u5jXTCqJDOLYF4-52" value="" style="verticalLabelPosition=bottom;shadow=0;dashed=0;align=center;html=1;verticalAlign=top;shape=mxgraph.electrical.abstract.multiplier;" vertex="1" parent="1">
          <mxGeometry x="326" y="558" width="20" height="20" as="geometry" />
        </mxCell>
        <mxCell id="uJrMI0u5jXTCqJDOLYF4-120" value="" style="edgeStyle=orthogonalEdgeStyle;rounded=0;orthogonalLoop=1;jettySize=auto;html=1;" edge="1" parent="1" source="uJrMI0u5jXTCqJDOLYF4-54" target="uJrMI0u5jXTCqJDOLYF4-56">
          <mxGeometry relative="1" as="geometry" />
        </mxCell>
        <mxCell id="uJrMI0u5jXTCqJDOLYF4-54" value="" style="verticalLabelPosition=bottom;shadow=0;dashed=0;align=center;html=1;verticalAlign=top;shape=mxgraph.electrical.abstract.multiplier;" vertex="1" parent="1">
          <mxGeometry x="515" y="602" width="20" height="20" as="geometry" />
        </mxCell>
        <mxCell id="uJrMI0u5jXTCqJDOLYF4-56" value="" style="verticalLabelPosition=bottom;verticalAlign=top;html=1;shape=mxgraph.flowchart.summing_function;" vertex="1" parent="1">
          <mxGeometry x="515" y="558" width="20" height="20" as="geometry" />
        </mxCell>
        <mxCell id="uJrMI0u5jXTCqJDOLYF4-58" style="edgeStyle=orthogonalEdgeStyle;rounded=0;orthogonalLoop=1;jettySize=auto;html=1;entryX=0.5;entryY=1;entryDx=0;entryDy=0;entryPerimeter=0;exitX=0.5;exitY=0;exitDx=0;exitDy=0;" edge="1" parent="1" source="uJrMI0u5jXTCqJDOLYF4-50" target="uJrMI0u5jXTCqJDOLYF4-54">
          <mxGeometry relative="1" as="geometry" />
        </mxCell>
        <mxCell id="uJrMI0u5jXTCqJDOLYF4-59" value="&lt;font&gt;&lt;sub&gt;&lt;font size=&quot;2&quot;&gt;g(t)&lt;/font&gt;&lt;/sub&gt;&lt;/font&gt;" style="edgeLabel;html=1;align=center;verticalAlign=middle;resizable=0;points=[];" vertex="1" connectable="0" parent="uJrMI0u5jXTCqJDOLYF4-58">
          <mxGeometry x="-0.7882" y="1" relative="1" as="geometry">
            <mxPoint as="offset" />
          </mxGeometry>
        </mxCell>
        <mxCell id="uJrMI0u5jXTCqJDOLYF4-63" value="" style="rounded=0;whiteSpace=wrap;html=1;fillColor=#008a00;strokeColor=#005700;fontColor=#ffffff;" vertex="1" parent="1">
          <mxGeometry x="400" y="664" width="40" height="10" as="geometry" />
        </mxCell>
        <mxCell id="uJrMI0u5jXTCqJDOLYF4-64" value="" style="rounded=0;whiteSpace=wrap;html=1;fillColor=#6a00ff;strokeColor=#3700CC;fontColor=#ffffff;" vertex="1" parent="1">
          <mxGeometry x="257" y="710.5" width="40" height="10" as="geometry" />
        </mxCell>
        <mxCell id="uJrMI0u5jXTCqJDOLYF4-65" value="" style="rounded=0;whiteSpace=wrap;html=1;fillColor=#6a00ff;strokeColor=#3700CC;fontColor=#ffffff;" vertex="1" parent="1">
          <mxGeometry x="316" y="710.5" width="40" height="10" as="geometry" />
        </mxCell>
        <mxCell id="uJrMI0u5jXTCqJDOLYF4-72" value="" style="edgeStyle=none;orthogonalLoop=1;jettySize=auto;html=1;rounded=0;startSize=6;endSize=6;" edge="1" parent="1">
          <mxGeometry width="100" relative="1" as="geometry">
            <mxPoint x="160" y="567.5" as="sourcePoint" />
            <mxPoint x="210" y="567.5" as="targetPoint" />
            <Array as="points" />
          </mxGeometry>
        </mxCell>
        <mxCell id="uJrMI0u5jXTCqJDOLYF4-73" value="&lt;font&gt;&lt;sub&gt;&lt;font size=&quot;2&quot;&gt;h&lt;sub&gt;(t-1)&lt;/sub&gt;&lt;/font&gt;&lt;/sub&gt;&lt;/font&gt;" style="edgeLabel;html=1;align=center;verticalAlign=middle;resizable=0;points=[];" vertex="1" connectable="0" parent="uJrMI0u5jXTCqJDOLYF4-72">
          <mxGeometry x="-0.12" y="2" relative="1" as="geometry">
            <mxPoint x="-22" y="3" as="offset" />
          </mxGeometry>
        </mxCell>
        <mxCell id="uJrMI0u5jXTCqJDOLYF4-76" value="" style="edgeStyle=none;orthogonalLoop=1;jettySize=auto;html=1;rounded=0;startSize=6;endSize=6;" edge="1" parent="1">
          <mxGeometry width="100" relative="1" as="geometry">
            <mxPoint x="349" y="838" as="sourcePoint" />
            <mxPoint x="349" y="798" as="targetPoint" />
            <Array as="points" />
          </mxGeometry>
        </mxCell>
        <mxCell id="uJrMI0u5jXTCqJDOLYF4-77" value="&lt;font style=&quot;font-size: 13px;&quot;&gt;x&lt;/font&gt;&lt;sub style=&quot;font-size: 13px;&quot;&gt;&lt;font style=&quot;font-size: 13px;&quot;&gt;(t)&lt;/font&gt;&lt;br&gt;&lt;/sub&gt;" style="edgeLabel;html=1;align=center;verticalAlign=middle;resizable=0;points=[];" vertex="1" connectable="0" parent="uJrMI0u5jXTCqJDOLYF4-76">
          <mxGeometry x="-0.3" y="-1" relative="1" as="geometry">
            <mxPoint y="14" as="offset" />
          </mxGeometry>
        </mxCell>
        <mxCell id="uJrMI0u5jXTCqJDOLYF4-83" value="" style="endArrow=classic;html=1;rounded=0;entryX=0.5;entryY=1;entryDx=0;entryDy=0;" edge="1" parent="1" target="uJrMI0u5jXTCqJDOLYF4-46">
          <mxGeometry width="50" height="50" relative="1" as="geometry">
            <mxPoint x="350" y="798" as="sourcePoint" />
            <mxPoint x="400" y="748" as="targetPoint" />
          </mxGeometry>
        </mxCell>
        <mxCell id="uJrMI0u5jXTCqJDOLYF4-84" value="" style="endArrow=classic;html=1;rounded=0;entryX=0.5;entryY=1;entryDx=0;entryDy=0;" edge="1" parent="1" target="uJrMI0u5jXTCqJDOLYF4-49">
          <mxGeometry width="50" height="50" relative="1" as="geometry">
            <mxPoint x="350" y="798" as="sourcePoint" />
            <mxPoint x="400" y="748" as="targetPoint" />
          </mxGeometry>
        </mxCell>
        <mxCell id="uJrMI0u5jXTCqJDOLYF4-85" value="" style="endArrow=classic;html=1;rounded=0;entryX=0.5;entryY=1;entryDx=0;entryDy=0;" edge="1" parent="1" target="uJrMI0u5jXTCqJDOLYF4-50">
          <mxGeometry width="50" height="50" relative="1" as="geometry">
            <mxPoint x="350" y="798" as="sourcePoint" />
            <mxPoint x="400" y="748" as="targetPoint" />
          </mxGeometry>
        </mxCell>
        <mxCell id="uJrMI0u5jXTCqJDOLYF4-86" value="" style="endArrow=none;html=1;rounded=0;entryX=0;entryY=0.5;entryDx=0;entryDy=0;entryPerimeter=0;" edge="1" parent="1" target="uJrMI0u5jXTCqJDOLYF4-52">
          <mxGeometry width="50" height="50" relative="1" as="geometry">
            <mxPoint x="210" y="568" as="sourcePoint" />
            <mxPoint x="260" y="518" as="targetPoint" />
          </mxGeometry>
        </mxCell>
        <mxCell id="uJrMI0u5jXTCqJDOLYF4-90" value="" style="verticalLabelPosition=bottom;shadow=0;dashed=0;align=center;html=1;verticalAlign=top;shape=mxgraph.electrical.abstract.multiplier;" vertex="1" parent="1">
          <mxGeometry x="480" y="700.5" width="10" height="10" as="geometry" />
        </mxCell>
        <mxCell id="uJrMI0u5jXTCqJDOLYF4-91" value="" style="verticalLabelPosition=bottom;verticalAlign=top;html=1;shape=mxgraph.flowchart.summing_function;" vertex="1" parent="1">
          <mxGeometry x="480" y="728" width="10" height="10" as="geometry" />
        </mxCell>
        <mxCell id="uJrMI0u5jXTCqJDOLYF4-92" value="" style="rounded=0;whiteSpace=wrap;html=1;fillColor=#008a00;strokeColor=#005700;fontColor=#ffffff;" vertex="1" parent="1">
          <mxGeometry x="472.5" y="748" width="25" height="10" as="geometry" />
        </mxCell>
        <mxCell id="uJrMI0u5jXTCqJDOLYF4-93" value="" style="rounded=0;whiteSpace=wrap;html=1;fillColor=#6a00ff;strokeColor=#3700CC;fontColor=#ffffff;" vertex="1" parent="1">
          <mxGeometry x="472.5" y="768" width="25" height="10" as="geometry" />
        </mxCell>
        <mxCell id="uJrMI0u5jXTCqJDOLYF4-94" value="sigmoid" style="text;html=1;strokeColor=none;fillColor=none;align=center;verticalAlign=middle;whiteSpace=wrap;rounded=0;" vertex="1" parent="1">
          <mxGeometry x="510" y="768" width="50" height="10" as="geometry" />
        </mxCell>
        <mxCell id="uJrMI0u5jXTCqJDOLYF4-95" value="tanh" style="text;html=1;strokeColor=none;fillColor=none;align=center;verticalAlign=middle;whiteSpace=wrap;rounded=0;" vertex="1" parent="1">
          <mxGeometry x="510" y="748" width="50" height="10" as="geometry" />
        </mxCell>
        <mxCell id="uJrMI0u5jXTCqJDOLYF4-96" value="suma" style="text;html=1;strokeColor=none;fillColor=none;align=center;verticalAlign=middle;whiteSpace=wrap;rounded=0;" vertex="1" parent="1">
          <mxGeometry x="510" y="728" width="50" height="10" as="geometry" />
        </mxCell>
        <mxCell id="uJrMI0u5jXTCqJDOLYF4-97" value="Iloczyn po elementach" style="text;html=1;strokeColor=none;fillColor=none;align=center;verticalAlign=middle;whiteSpace=wrap;rounded=0;" vertex="1" parent="1">
          <mxGeometry x="510" y="700.5" width="50" height="10" as="geometry" />
        </mxCell>
        <mxCell id="uJrMI0u5jXTCqJDOLYF4-106" value="" style="edgeStyle=orthogonalEdgeStyle;rounded=0;orthogonalLoop=1;jettySize=auto;html=1;entryX=0;entryY=0.5;entryDx=0;entryDy=0;entryPerimeter=0;" edge="1" parent="1">
          <mxGeometry relative="1" as="geometry">
            <mxPoint x="535" y="567.5" as="sourcePoint" />
            <mxPoint x="637" y="567.5" as="targetPoint" />
          </mxGeometry>
        </mxCell>
        <mxCell id="uJrMI0u5jXTCqJDOLYF4-109" value="&lt;span style=&quot;caret-color: rgb(0, 0, 0); color: rgb(0, 0, 0); font-family: Helvetica; font-size: small; font-style: normal; font-variant-caps: normal; font-weight: 400; letter-spacing: normal; text-align: center; text-indent: 0px; text-transform: none; word-spacing: 0px; -webkit-text-stroke-width: 0px; background-color: rgb(255, 255, 255); text-decoration: none; float: none; display: inline !important;&quot;&gt;h&lt;/span&gt;&lt;sub style=&quot;border-color: var(--border-color); caret-color: rgb(0, 0, 0); color: rgb(0, 0, 0); font-family: Helvetica; font-style: normal; font-variant-caps: normal; font-weight: 400; letter-spacing: normal; text-align: center; text-indent: 0px; text-transform: none; word-spacing: 0px; -webkit-text-stroke-width: 0px; text-decoration: none;&quot;&gt;(t)&lt;/sub&gt;" style="text;whiteSpace=wrap;html=1;" vertex="1" parent="1">
          <mxGeometry x="636" y="539" width="54" height="39" as="geometry" />
        </mxCell>
        <mxCell id="uJrMI0u5jXTCqJDOLYF4-110" value="" style="endArrow=none;html=1;rounded=0;" edge="1" parent="1">
          <mxGeometry width="50" height="50" relative="1" as="geometry">
            <mxPoint x="225" y="773" as="sourcePoint" />
            <mxPoint x="225" y="568" as="targetPoint" />
          </mxGeometry>
        </mxCell>
        <mxCell id="uJrMI0u5jXTCqJDOLYF4-112" value="" style="endArrow=classic;html=1;rounded=0;entryX=0.5;entryY=1;entryDx=0;entryDy=0;" edge="1" parent="1" target="uJrMI0u5jXTCqJDOLYF4-46">
          <mxGeometry width="50" height="50" relative="1" as="geometry">
            <mxPoint x="225" y="772" as="sourcePoint" />
            <mxPoint x="275" y="722" as="targetPoint" />
          </mxGeometry>
        </mxCell>
        <mxCell id="uJrMI0u5jXTCqJDOLYF4-114" value="" style="endArrow=classic;html=1;rounded=0;entryX=0.5;entryY=1;entryDx=0;entryDy=0;" edge="1" parent="1" target="uJrMI0u5jXTCqJDOLYF4-49">
          <mxGeometry width="50" height="50" relative="1" as="geometry">
            <mxPoint x="225" y="772" as="sourcePoint" />
            <mxPoint x="275" y="722" as="targetPoint" />
          </mxGeometry>
        </mxCell>
        <mxCell id="uJrMI0u5jXTCqJDOLYF4-115" style="edgeStyle=orthogonalEdgeStyle;rounded=0;orthogonalLoop=1;jettySize=auto;html=1;exitX=0.5;exitY=0;exitDx=0;exitDy=0;entryX=0.5;entryY=1;entryDx=0;entryDy=0;entryPerimeter=0;" edge="1" parent="1" source="uJrMI0u5jXTCqJDOLYF4-65" target="uJrMI0u5jXTCqJDOLYF4-52">
          <mxGeometry relative="1" as="geometry" />
        </mxCell>
        <mxCell id="uJrMI0u5jXTCqJDOLYF4-116" value="-1" style="ellipse;whiteSpace=wrap;html=1;aspect=fixed;" vertex="1" parent="1">
          <mxGeometry x="410" y="602" width="20" height="20" as="geometry" />
        </mxCell>
        <mxCell id="uJrMI0u5jXTCqJDOLYF4-118" value="" style="endArrow=none;html=1;rounded=0;entryX=0;entryY=0.5;entryDx=0;entryDy=0;" edge="1" parent="1" target="uJrMI0u5jXTCqJDOLYF4-116">
          <mxGeometry width="50" height="50" relative="1" as="geometry">
            <mxPoint x="337" y="612" as="sourcePoint" />
            <mxPoint x="386" y="567" as="targetPoint" />
          </mxGeometry>
        </mxCell>
        <mxCell id="uJrMI0u5jXTCqJDOLYF4-119" style="edgeStyle=orthogonalEdgeStyle;rounded=0;orthogonalLoop=1;jettySize=auto;html=1;entryX=0;entryY=0.5;entryDx=0;entryDy=0;entryPerimeter=0;" edge="1" parent="1" source="uJrMI0u5jXTCqJDOLYF4-116" target="uJrMI0u5jXTCqJDOLYF4-54">
          <mxGeometry relative="1" as="geometry" />
        </mxCell>
        <mxCell id="uJrMI0u5jXTCqJDOLYF4-121" value="" style="verticalLabelPosition=bottom;shadow=0;dashed=0;align=center;html=1;verticalAlign=top;shape=mxgraph.electrical.abstract.multiplier;" vertex="1" parent="1">
          <mxGeometry x="267" y="674" width="20" height="20" as="geometry" />
        </mxCell>
        <mxCell id="uJrMI0u5jXTCqJDOLYF4-123" value="" style="endArrow=classic;html=1;rounded=0;exitX=0.5;exitY=0;exitDx=0;exitDy=0;entryX=0.5;entryY=1;entryDx=0;entryDy=0;entryPerimeter=0;" edge="1" parent="1" source="uJrMI0u5jXTCqJDOLYF4-64" target="uJrMI0u5jXTCqJDOLYF4-121">
          <mxGeometry width="50" height="50" relative="1" as="geometry">
            <mxPoint x="282" y="666" as="sourcePoint" />
            <mxPoint x="332" y="616" as="targetPoint" />
          </mxGeometry>
        </mxCell>
        <mxCell id="uJrMI0u5jXTCqJDOLYF4-125" value="" style="endArrow=none;html=1;rounded=0;entryX=0;entryY=0.5;entryDx=0;entryDy=0;entryPerimeter=0;" edge="1" parent="1" target="uJrMI0u5jXTCqJDOLYF4-121">
          <mxGeometry width="50" height="50" relative="1" as="geometry">
            <mxPoint x="225" y="684" as="sourcePoint" />
            <mxPoint x="500" y="782" as="targetPoint" />
          </mxGeometry>
        </mxCell>
        <mxCell id="uJrMI0u5jXTCqJDOLYF4-126" value="" style="endArrow=none;html=1;rounded=0;exitX=1;exitY=0.5;exitDx=0;exitDy=0;exitPerimeter=0;" edge="1" parent="1" source="uJrMI0u5jXTCqJDOLYF4-121">
          <mxGeometry width="50" height="50" relative="1" as="geometry">
            <mxPoint x="450" y="832" as="sourcePoint" />
            <mxPoint x="332" y="684" as="targetPoint" />
          </mxGeometry>
        </mxCell>
        <mxCell id="uJrMI0u5jXTCqJDOLYF4-128" value="" style="endArrow=classic;html=1;rounded=0;entryX=0;entryY=0.75;entryDx=0;entryDy=0;" edge="1" parent="1" target="uJrMI0u5jXTCqJDOLYF4-50">
          <mxGeometry width="50" height="50" relative="1" as="geometry">
            <mxPoint x="341" y="685" as="sourcePoint" />
            <mxPoint x="500" y="782" as="targetPoint" />
          </mxGeometry>
        </mxCell>
        <mxCell id="uJrMI0u5jXTCqJDOLYF4-129" value="&lt;sub style=&quot;border-color: var(--border-color); caret-color: rgb(0, 0, 0); color: rgb(0, 0, 0); font-family: Helvetica; font-style: normal; font-variant-caps: normal; font-weight: 400; letter-spacing: normal; text-align: center; text-indent: 0px; text-transform: none; word-spacing: 0px; -webkit-text-stroke-width: 0px; text-decoration: none;&quot;&gt;&lt;font size=&quot;2&quot;&gt;&lt;span style=&quot;background-color: rgb(255, 255, 255);&quot;&gt;z&lt;/span&gt;&lt;/font&gt;(t)&lt;/sub&gt;" style="text;whiteSpace=wrap;html=1;" vertex="1" parent="1">
          <mxGeometry x="338" y="681.5" width="54" height="39" as="geometry" />
        </mxCell>
        <mxCell id="uJrMI0u5jXTCqJDOLYF4-130" value="&lt;sub style=&quot;border-color: var(--border-color); caret-color: rgb(0, 0, 0); color: rgb(0, 0, 0); font-family: Helvetica; font-style: normal; font-variant-caps: normal; font-weight: 400; letter-spacing: normal; text-align: center; text-indent: 0px; text-transform: none; word-spacing: 0px; -webkit-text-stroke-width: 0px; text-decoration: none;&quot;&gt;&lt;font size=&quot;2&quot;&gt;&lt;span style=&quot;background-color: rgb(255, 255, 255);&quot;&gt;r&lt;/span&gt;&lt;/font&gt;(t)&lt;/sub&gt;" style="text;whiteSpace=wrap;html=1;" vertex="1" parent="1">
          <mxGeometry x="252" y="684" width="54" height="39" as="geometry" />
        </mxCell>
        <mxCell id="uJrMI0u5jXTCqJDOLYF4-131" value="&lt;font style=&quot;font-size: 18px;&quot;&gt;1&lt;/font&gt;" style="ellipse;whiteSpace=wrap;html=1;fillColor=#e1d5e7;strokeColor=#9673a6;" vertex="1" parent="1">
          <mxGeometry x="305" y="1237" width="50" height="50" as="geometry" />
        </mxCell>
        <mxCell id="uJrMI0u5jXTCqJDOLYF4-132" value="" style="ellipse;whiteSpace=wrap;html=1;fillColor=#ffe6cc;strokeColor=#d79b00;" vertex="1" parent="1">
          <mxGeometry x="385" y="1237" width="50" height="50" as="geometry" />
        </mxCell>
        <mxCell id="uJrMI0u5jXTCqJDOLYF4-133" value="" style="ellipse;whiteSpace=wrap;html=1;fillColor=#ffe6cc;strokeColor=#d79b00;" vertex="1" parent="1">
          <mxGeometry x="465" y="1237" width="50" height="50" as="geometry" />
        </mxCell>
        <mxCell id="uJrMI0u5jXTCqJDOLYF4-134" value="" style="ellipse;whiteSpace=wrap;html=1;fillColor=#d5e8d4;strokeColor=#82b366;" vertex="1" parent="1">
          <mxGeometry x="348" y="1126" width="50" height="50" as="geometry" />
        </mxCell>
        <mxCell id="uJrMI0u5jXTCqJDOLYF4-135" value="" style="ellipse;whiteSpace=wrap;html=1;fillColor=#d5e8d4;strokeColor=#82b366;" vertex="1" parent="1">
          <mxGeometry x="430" y="1126" width="50" height="50" as="geometry" />
        </mxCell>
        <mxCell id="uJrMI0u5jXTCqJDOLYF4-136" value="" style="ellipse;whiteSpace=wrap;html=1;fillColor=#d5e8d4;strokeColor=#82b366;" vertex="1" parent="1">
          <mxGeometry x="266" y="1126" width="50" height="50" as="geometry" />
        </mxCell>
        <mxCell id="uJrMI0u5jXTCqJDOLYF4-137" value="" style="ellipse;whiteSpace=wrap;html=1;fillColor=#d5e8d4;strokeColor=#82b366;" vertex="1" parent="1">
          <mxGeometry x="512" y="1126" width="50" height="50" as="geometry" />
        </mxCell>
        <mxCell id="uJrMI0u5jXTCqJDOLYF4-138" value="&lt;font style=&quot;font-size: 18px;&quot;&gt;1&lt;/font&gt;" style="ellipse;whiteSpace=wrap;html=1;fillColor=#e1d5e7;strokeColor=#9673a6;" vertex="1" parent="1">
          <mxGeometry x="184" y="1126" width="50" height="50" as="geometry" />
        </mxCell>
        <mxCell id="uJrMI0u5jXTCqJDOLYF4-183" value="" style="edgeStyle=orthogonalEdgeStyle;rounded=0;orthogonalLoop=1;jettySize=auto;html=1;" edge="1" parent="1" source="uJrMI0u5jXTCqJDOLYF4-139">
          <mxGeometry relative="1" as="geometry">
            <mxPoint x="330" y="981" as="targetPoint" />
          </mxGeometry>
        </mxCell>
        <mxCell id="uJrMI0u5jXTCqJDOLYF4-139" value="" style="ellipse;whiteSpace=wrap;html=1;fillColor=#d5e8d4;strokeColor=#82b366;" vertex="1" parent="1">
          <mxGeometry x="305" y="1010" width="50" height="50" as="geometry" />
        </mxCell>
        <mxCell id="uJrMI0u5jXTCqJDOLYF4-187" value="" style="edgeStyle=orthogonalEdgeStyle;rounded=0;orthogonalLoop=1;jettySize=auto;html=1;" edge="1" parent="1" source="uJrMI0u5jXTCqJDOLYF4-140">
          <mxGeometry relative="1" as="geometry">
            <mxPoint x="410" y="981" as="targetPoint" />
          </mxGeometry>
        </mxCell>
        <mxCell id="uJrMI0u5jXTCqJDOLYF4-140" value="" style="ellipse;whiteSpace=wrap;html=1;fillColor=#d5e8d4;strokeColor=#82b366;" vertex="1" parent="1">
          <mxGeometry x="385" y="1010" width="50" height="50" as="geometry" />
        </mxCell>
        <mxCell id="uJrMI0u5jXTCqJDOLYF4-189" value="" style="edgeStyle=orthogonalEdgeStyle;rounded=0;orthogonalLoop=1;jettySize=auto;html=1;" edge="1" parent="1" source="uJrMI0u5jXTCqJDOLYF4-141">
          <mxGeometry relative="1" as="geometry">
            <mxPoint x="490" y="981" as="targetPoint" />
          </mxGeometry>
        </mxCell>
        <mxCell id="uJrMI0u5jXTCqJDOLYF4-141" value="" style="ellipse;whiteSpace=wrap;html=1;fillColor=#d5e8d4;strokeColor=#82b366;" vertex="1" parent="1">
          <mxGeometry x="465" y="1010" width="50" height="50" as="geometry" />
        </mxCell>
        <mxCell id="uJrMI0u5jXTCqJDOLYF4-143" value="" style="endArrow=classic;html=1;rounded=0;exitX=1;exitY=0;exitDx=0;exitDy=0;entryX=0;entryY=1;entryDx=0;entryDy=0;" edge="1" parent="1" source="uJrMI0u5jXTCqJDOLYF4-138" target="uJrMI0u5jXTCqJDOLYF4-139">
          <mxGeometry width="50" height="50" relative="1" as="geometry">
            <mxPoint x="196" y="1082" as="sourcePoint" />
            <mxPoint x="246" y="1032" as="targetPoint" />
          </mxGeometry>
        </mxCell>
        <mxCell id="uJrMI0u5jXTCqJDOLYF4-144" value="" style="endArrow=classic;html=1;rounded=0;exitX=1;exitY=0;exitDx=0;exitDy=0;entryX=0;entryY=1;entryDx=0;entryDy=0;" edge="1" parent="1" source="uJrMI0u5jXTCqJDOLYF4-138" target="uJrMI0u5jXTCqJDOLYF4-140">
          <mxGeometry width="50" height="50" relative="1" as="geometry">
            <mxPoint x="360" y="1135" as="sourcePoint" />
            <mxPoint x="410" y="1085" as="targetPoint" />
          </mxGeometry>
        </mxCell>
        <mxCell id="uJrMI0u5jXTCqJDOLYF4-145" value="" style="endArrow=classic;html=1;rounded=0;exitX=1;exitY=0;exitDx=0;exitDy=0;entryX=0;entryY=1;entryDx=0;entryDy=0;" edge="1" parent="1" source="uJrMI0u5jXTCqJDOLYF4-138" target="uJrMI0u5jXTCqJDOLYF4-141">
          <mxGeometry width="50" height="50" relative="1" as="geometry">
            <mxPoint x="343" y="1138" as="sourcePoint" />
            <mxPoint x="393" y="1088" as="targetPoint" />
          </mxGeometry>
        </mxCell>
        <mxCell id="uJrMI0u5jXTCqJDOLYF4-146" value="" style="endArrow=classic;html=1;rounded=0;exitX=0;exitY=0;exitDx=0;exitDy=0;entryX=0.5;entryY=1;entryDx=0;entryDy=0;" edge="1" parent="1" source="uJrMI0u5jXTCqJDOLYF4-131" target="uJrMI0u5jXTCqJDOLYF4-136">
          <mxGeometry width="50" height="50" relative="1" as="geometry">
            <mxPoint x="123" y="1279" as="sourcePoint" />
            <mxPoint x="173" y="1229" as="targetPoint" />
          </mxGeometry>
        </mxCell>
        <mxCell id="uJrMI0u5jXTCqJDOLYF4-147" value="" style="endArrow=classic;html=1;rounded=0;exitX=0.5;exitY=0;exitDx=0;exitDy=0;entryX=0;entryY=1;entryDx=0;entryDy=0;" edge="1" parent="1" source="uJrMI0u5jXTCqJDOLYF4-131" target="uJrMI0u5jXTCqJDOLYF4-134">
          <mxGeometry width="50" height="50" relative="1" as="geometry">
            <mxPoint x="335" y="1253" as="sourcePoint" />
            <mxPoint x="385" y="1203" as="targetPoint" />
          </mxGeometry>
        </mxCell>
        <mxCell id="uJrMI0u5jXTCqJDOLYF4-148" value="" style="endArrow=classic;html=1;rounded=0;exitX=1;exitY=0;exitDx=0;exitDy=0;entryX=0;entryY=1;entryDx=0;entryDy=0;" edge="1" parent="1" source="uJrMI0u5jXTCqJDOLYF4-131" target="uJrMI0u5jXTCqJDOLYF4-135">
          <mxGeometry width="50" height="50" relative="1" as="geometry">
            <mxPoint x="358" y="1242" as="sourcePoint" />
            <mxPoint x="408" y="1192" as="targetPoint" />
          </mxGeometry>
        </mxCell>
        <mxCell id="uJrMI0u5jXTCqJDOLYF4-149" value="" style="endArrow=classic;html=1;rounded=0;exitX=1;exitY=0;exitDx=0;exitDy=0;entryX=0;entryY=1;entryDx=0;entryDy=0;" edge="1" parent="1" source="uJrMI0u5jXTCqJDOLYF4-131" target="uJrMI0u5jXTCqJDOLYF4-137">
          <mxGeometry width="50" height="50" relative="1" as="geometry">
            <mxPoint x="427" y="1238" as="sourcePoint" />
            <mxPoint x="477" y="1188" as="targetPoint" />
          </mxGeometry>
        </mxCell>
        <mxCell id="uJrMI0u5jXTCqJDOLYF4-150" value="" style="endArrow=classic;html=1;rounded=0;exitX=0.5;exitY=0;exitDx=0;exitDy=0;entryX=0.5;entryY=1;entryDx=0;entryDy=0;" edge="1" parent="1" source="uJrMI0u5jXTCqJDOLYF4-136" target="uJrMI0u5jXTCqJDOLYF4-139">
          <mxGeometry width="50" height="50" relative="1" as="geometry">
            <mxPoint x="368" y="1141" as="sourcePoint" />
            <mxPoint x="418" y="1091" as="targetPoint" />
          </mxGeometry>
        </mxCell>
        <mxCell id="uJrMI0u5jXTCqJDOLYF4-151" value="" style="endArrow=classic;html=1;rounded=0;exitX=0.5;exitY=0;exitDx=0;exitDy=0;entryX=0.5;entryY=1;entryDx=0;entryDy=0;" edge="1" parent="1" source="uJrMI0u5jXTCqJDOLYF4-136" target="uJrMI0u5jXTCqJDOLYF4-140">
          <mxGeometry width="50" height="50" relative="1" as="geometry">
            <mxPoint x="368" y="1131" as="sourcePoint" />
            <mxPoint x="418" y="1081" as="targetPoint" />
          </mxGeometry>
        </mxCell>
        <mxCell id="uJrMI0u5jXTCqJDOLYF4-152" value="" style="endArrow=classic;html=1;rounded=0;exitX=0.5;exitY=0;exitDx=0;exitDy=0;entryX=0.5;entryY=1;entryDx=0;entryDy=0;" edge="1" parent="1" source="uJrMI0u5jXTCqJDOLYF4-136" target="uJrMI0u5jXTCqJDOLYF4-141">
          <mxGeometry width="50" height="50" relative="1" as="geometry">
            <mxPoint x="428" y="1128" as="sourcePoint" />
            <mxPoint x="478" y="1078" as="targetPoint" />
          </mxGeometry>
        </mxCell>
        <mxCell id="uJrMI0u5jXTCqJDOLYF4-153" value="" style="endArrow=classic;html=1;rounded=0;exitX=0.5;exitY=0;exitDx=0;exitDy=0;entryX=0.5;entryY=1;entryDx=0;entryDy=0;" edge="1" parent="1" source="uJrMI0u5jXTCqJDOLYF4-134" target="uJrMI0u5jXTCqJDOLYF4-139">
          <mxGeometry width="50" height="50" relative="1" as="geometry">
            <mxPoint x="360" y="1135" as="sourcePoint" />
            <mxPoint x="410" y="1085" as="targetPoint" />
          </mxGeometry>
        </mxCell>
        <mxCell id="uJrMI0u5jXTCqJDOLYF4-154" value="" style="endArrow=classic;html=1;rounded=0;exitX=0.5;exitY=0;exitDx=0;exitDy=0;entryX=0.5;entryY=1;entryDx=0;entryDy=0;" edge="1" parent="1" source="uJrMI0u5jXTCqJDOLYF4-134" target="uJrMI0u5jXTCqJDOLYF4-140">
          <mxGeometry width="50" height="50" relative="1" as="geometry">
            <mxPoint x="434" y="1142" as="sourcePoint" />
            <mxPoint x="484" y="1092" as="targetPoint" />
          </mxGeometry>
        </mxCell>
        <mxCell id="uJrMI0u5jXTCqJDOLYF4-155" value="" style="endArrow=classic;html=1;rounded=0;exitX=0.5;exitY=0;exitDx=0;exitDy=0;entryX=0.5;entryY=1;entryDx=0;entryDy=0;" edge="1" parent="1" source="uJrMI0u5jXTCqJDOLYF4-134" target="uJrMI0u5jXTCqJDOLYF4-141">
          <mxGeometry width="50" height="50" relative="1" as="geometry">
            <mxPoint x="417" y="1122" as="sourcePoint" />
            <mxPoint x="467" y="1072" as="targetPoint" />
          </mxGeometry>
        </mxCell>
        <mxCell id="uJrMI0u5jXTCqJDOLYF4-156" value="" style="endArrow=classic;html=1;rounded=0;exitX=0.5;exitY=0;exitDx=0;exitDy=0;entryX=0.5;entryY=1;entryDx=0;entryDy=0;" edge="1" parent="1" source="uJrMI0u5jXTCqJDOLYF4-135" target="uJrMI0u5jXTCqJDOLYF4-139">
          <mxGeometry width="50" height="50" relative="1" as="geometry">
            <mxPoint x="481" y="1124" as="sourcePoint" />
            <mxPoint x="531" y="1074" as="targetPoint" />
          </mxGeometry>
        </mxCell>
        <mxCell id="uJrMI0u5jXTCqJDOLYF4-157" value="" style="endArrow=classic;html=1;rounded=0;exitX=0.5;exitY=0;exitDx=0;exitDy=0;entryX=0.5;entryY=1;entryDx=0;entryDy=0;" edge="1" parent="1" source="uJrMI0u5jXTCqJDOLYF4-135" target="uJrMI0u5jXTCqJDOLYF4-140">
          <mxGeometry width="50" height="50" relative="1" as="geometry">
            <mxPoint x="483" y="1120" as="sourcePoint" />
            <mxPoint x="533" y="1070" as="targetPoint" />
          </mxGeometry>
        </mxCell>
        <mxCell id="uJrMI0u5jXTCqJDOLYF4-158" value="" style="endArrow=classic;html=1;rounded=0;exitX=0.5;exitY=0;exitDx=0;exitDy=0;entryX=0.5;entryY=1;entryDx=0;entryDy=0;" edge="1" parent="1" source="uJrMI0u5jXTCqJDOLYF4-135" target="uJrMI0u5jXTCqJDOLYF4-141">
          <mxGeometry width="50" height="50" relative="1" as="geometry">
            <mxPoint x="480" y="1124" as="sourcePoint" />
            <mxPoint x="530" y="1074" as="targetPoint" />
          </mxGeometry>
        </mxCell>
        <mxCell id="uJrMI0u5jXTCqJDOLYF4-159" value="" style="endArrow=classic;html=1;rounded=0;exitX=0.5;exitY=0;exitDx=0;exitDy=0;entryX=0.5;entryY=1;entryDx=0;entryDy=0;" edge="1" parent="1" source="uJrMI0u5jXTCqJDOLYF4-137" target="uJrMI0u5jXTCqJDOLYF4-141">
          <mxGeometry width="50" height="50" relative="1" as="geometry">
            <mxPoint x="545" y="1098" as="sourcePoint" />
            <mxPoint x="595" y="1048" as="targetPoint" />
          </mxGeometry>
        </mxCell>
        <mxCell id="uJrMI0u5jXTCqJDOLYF4-160" value="" style="endArrow=classic;html=1;rounded=0;exitX=0.5;exitY=0;exitDx=0;exitDy=0;entryX=0.5;entryY=1;entryDx=0;entryDy=0;" edge="1" parent="1" source="uJrMI0u5jXTCqJDOLYF4-137" target="uJrMI0u5jXTCqJDOLYF4-140">
          <mxGeometry width="50" height="50" relative="1" as="geometry">
            <mxPoint x="535" y="1093" as="sourcePoint" />
            <mxPoint x="585" y="1043" as="targetPoint" />
          </mxGeometry>
        </mxCell>
        <mxCell id="uJrMI0u5jXTCqJDOLYF4-161" value="" style="endArrow=classic;html=1;rounded=0;exitX=0.5;exitY=0;exitDx=0;exitDy=0;entryX=0.5;entryY=1;entryDx=0;entryDy=0;" edge="1" parent="1" source="uJrMI0u5jXTCqJDOLYF4-137" target="uJrMI0u5jXTCqJDOLYF4-139">
          <mxGeometry width="50" height="50" relative="1" as="geometry">
            <mxPoint x="571" y="1104" as="sourcePoint" />
            <mxPoint x="621" y="1054" as="targetPoint" />
          </mxGeometry>
        </mxCell>
        <mxCell id="uJrMI0u5jXTCqJDOLYF4-162" value="" style="endArrow=classic;html=1;rounded=0;exitX=0.5;exitY=0;exitDx=0;exitDy=0;entryX=0.5;entryY=1;entryDx=0;entryDy=0;" edge="1" parent="1" source="uJrMI0u5jXTCqJDOLYF4-133" target="uJrMI0u5jXTCqJDOLYF4-137">
          <mxGeometry width="50" height="50" relative="1" as="geometry">
            <mxPoint x="557" y="1274" as="sourcePoint" />
            <mxPoint x="607" y="1224" as="targetPoint" />
          </mxGeometry>
        </mxCell>
        <mxCell id="uJrMI0u5jXTCqJDOLYF4-163" value="" style="endArrow=classic;html=1;rounded=0;exitX=0.5;exitY=0;exitDx=0;exitDy=0;entryX=0.5;entryY=1;entryDx=0;entryDy=0;" edge="1" parent="1" source="uJrMI0u5jXTCqJDOLYF4-133" target="uJrMI0u5jXTCqJDOLYF4-135">
          <mxGeometry width="50" height="50" relative="1" as="geometry">
            <mxPoint x="563" y="1282" as="sourcePoint" />
            <mxPoint x="613" y="1232" as="targetPoint" />
          </mxGeometry>
        </mxCell>
        <mxCell id="uJrMI0u5jXTCqJDOLYF4-164" value="" style="endArrow=classic;html=1;rounded=0;exitX=0.5;exitY=0;exitDx=0;exitDy=0;entryX=0.5;entryY=1;entryDx=0;entryDy=0;" edge="1" parent="1" source="uJrMI0u5jXTCqJDOLYF4-133" target="uJrMI0u5jXTCqJDOLYF4-134">
          <mxGeometry width="50" height="50" relative="1" as="geometry">
            <mxPoint x="579" y="1235" as="sourcePoint" />
            <mxPoint x="629" y="1185" as="targetPoint" />
          </mxGeometry>
        </mxCell>
        <mxCell id="uJrMI0u5jXTCqJDOLYF4-165" value="" style="endArrow=classic;html=1;rounded=0;exitX=0.5;exitY=0;exitDx=0;exitDy=0;entryX=0.5;entryY=1;entryDx=0;entryDy=0;" edge="1" parent="1" source="uJrMI0u5jXTCqJDOLYF4-133" target="uJrMI0u5jXTCqJDOLYF4-136">
          <mxGeometry width="50" height="50" relative="1" as="geometry">
            <mxPoint x="544" y="1257" as="sourcePoint" />
            <mxPoint x="594" y="1207" as="targetPoint" />
          </mxGeometry>
        </mxCell>
        <mxCell id="uJrMI0u5jXTCqJDOLYF4-166" value="" style="endArrow=classic;html=1;rounded=0;exitX=0.5;exitY=0;exitDx=0;exitDy=0;entryX=0.5;entryY=1;entryDx=0;entryDy=0;" edge="1" parent="1" source="uJrMI0u5jXTCqJDOLYF4-132" target="uJrMI0u5jXTCqJDOLYF4-136">
          <mxGeometry width="50" height="50" relative="1" as="geometry">
            <mxPoint x="471" y="1358" as="sourcePoint" />
            <mxPoint x="521" y="1308" as="targetPoint" />
          </mxGeometry>
        </mxCell>
        <mxCell id="uJrMI0u5jXTCqJDOLYF4-167" value="" style="endArrow=classic;html=1;rounded=0;exitX=0.5;exitY=0;exitDx=0;exitDy=0;entryX=0.5;entryY=1;entryDx=0;entryDy=0;" edge="1" parent="1" source="uJrMI0u5jXTCqJDOLYF4-132" target="uJrMI0u5jXTCqJDOLYF4-134">
          <mxGeometry width="50" height="50" relative="1" as="geometry">
            <mxPoint x="462" y="1331" as="sourcePoint" />
            <mxPoint x="512" y="1281" as="targetPoint" />
          </mxGeometry>
        </mxCell>
        <mxCell id="uJrMI0u5jXTCqJDOLYF4-168" value="" style="endArrow=classic;html=1;rounded=0;exitX=0.5;exitY=0;exitDx=0;exitDy=0;entryX=0.5;entryY=1;entryDx=0;entryDy=0;" edge="1" parent="1" source="uJrMI0u5jXTCqJDOLYF4-132" target="uJrMI0u5jXTCqJDOLYF4-135">
          <mxGeometry width="50" height="50" relative="1" as="geometry">
            <mxPoint x="443" y="1349" as="sourcePoint" />
            <mxPoint x="493" y="1299" as="targetPoint" />
          </mxGeometry>
        </mxCell>
        <mxCell id="uJrMI0u5jXTCqJDOLYF4-169" value="" style="endArrow=classic;html=1;rounded=0;exitX=0.5;exitY=0;exitDx=0;exitDy=0;entryX=0.5;entryY=1;entryDx=0;entryDy=0;" edge="1" parent="1" source="uJrMI0u5jXTCqJDOLYF4-132" target="uJrMI0u5jXTCqJDOLYF4-137">
          <mxGeometry width="50" height="50" relative="1" as="geometry">
            <mxPoint x="447" y="1359" as="sourcePoint" />
            <mxPoint x="497" y="1309" as="targetPoint" />
          </mxGeometry>
        </mxCell>
        <mxCell id="uJrMI0u5jXTCqJDOLYF4-170" value="" style="endArrow=none;html=1;rounded=0;exitX=0;exitY=0.5;exitDx=0;exitDy=0;entryX=1;entryY=0.5;entryDx=0;entryDy=0;" edge="1" parent="1" source="uJrMI0u5jXTCqJDOLYF4-139" target="uJrMI0u5jXTCqJDOLYF4-139">
          <mxGeometry width="50" height="50" relative="1" as="geometry">
            <mxPoint x="221" y="1049" as="sourcePoint" />
            <mxPoint x="271" y="999" as="targetPoint" />
          </mxGeometry>
        </mxCell>
        <mxCell id="uJrMI0u5jXTCqJDOLYF4-171" value="" style="endArrow=none;html=1;rounded=0;entryX=0;entryY=0.5;entryDx=0;entryDy=0;exitX=1;exitY=0.5;exitDx=0;exitDy=0;" edge="1" parent="1" source="uJrMI0u5jXTCqJDOLYF4-140" target="uJrMI0u5jXTCqJDOLYF4-140">
          <mxGeometry width="50" height="50" relative="1" as="geometry">
            <mxPoint x="360" y="1135" as="sourcePoint" />
            <mxPoint x="410" y="1085" as="targetPoint" />
          </mxGeometry>
        </mxCell>
        <mxCell id="uJrMI0u5jXTCqJDOLYF4-172" value="" style="endArrow=none;html=1;rounded=0;exitX=0;exitY=0.5;exitDx=0;exitDy=0;entryX=1;entryY=0.5;entryDx=0;entryDy=0;" edge="1" parent="1" source="uJrMI0u5jXTCqJDOLYF4-141" target="uJrMI0u5jXTCqJDOLYF4-141">
          <mxGeometry width="50" height="50" relative="1" as="geometry">
            <mxPoint x="541" y="1018" as="sourcePoint" />
            <mxPoint x="591" y="968" as="targetPoint" />
          </mxGeometry>
        </mxCell>
        <mxCell id="uJrMI0u5jXTCqJDOLYF4-173" value="" style="endArrow=none;html=1;rounded=0;entryX=0;entryY=0.5;entryDx=0;entryDy=0;exitX=1;exitY=0.5;exitDx=0;exitDy=0;" edge="1" parent="1" source="uJrMI0u5jXTCqJDOLYF4-136" target="uJrMI0u5jXTCqJDOLYF4-136">
          <mxGeometry width="50" height="50" relative="1" as="geometry">
            <mxPoint x="213" y="1256" as="sourcePoint" />
            <mxPoint x="263" y="1206" as="targetPoint" />
          </mxGeometry>
        </mxCell>
        <mxCell id="uJrMI0u5jXTCqJDOLYF4-174" value="" style="endArrow=none;html=1;rounded=0;entryX=0;entryY=0.5;entryDx=0;entryDy=0;exitX=1;exitY=0.5;exitDx=0;exitDy=0;" edge="1" parent="1" source="uJrMI0u5jXTCqJDOLYF4-134" target="uJrMI0u5jXTCqJDOLYF4-134">
          <mxGeometry width="50" height="50" relative="1" as="geometry">
            <mxPoint x="180" y="1302" as="sourcePoint" />
            <mxPoint x="230" y="1252" as="targetPoint" />
          </mxGeometry>
        </mxCell>
        <mxCell id="uJrMI0u5jXTCqJDOLYF4-175" value="" style="endArrow=none;html=1;rounded=0;entryX=0;entryY=0.5;entryDx=0;entryDy=0;exitX=1;exitY=0.5;exitDx=0;exitDy=0;" edge="1" parent="1" source="uJrMI0u5jXTCqJDOLYF4-135" target="uJrMI0u5jXTCqJDOLYF4-135">
          <mxGeometry width="50" height="50" relative="1" as="geometry">
            <mxPoint x="189" y="1263" as="sourcePoint" />
            <mxPoint x="239" y="1213" as="targetPoint" />
          </mxGeometry>
        </mxCell>
        <mxCell id="uJrMI0u5jXTCqJDOLYF4-176" value="" style="endArrow=none;html=1;rounded=0;exitX=0;exitY=0.5;exitDx=0;exitDy=0;entryX=1;entryY=0.5;entryDx=0;entryDy=0;" edge="1" parent="1" source="uJrMI0u5jXTCqJDOLYF4-137" target="uJrMI0u5jXTCqJDOLYF4-137">
          <mxGeometry width="50" height="50" relative="1" as="geometry">
            <mxPoint x="580" y="1227" as="sourcePoint" />
            <mxPoint x="630" y="1177" as="targetPoint" />
          </mxGeometry>
        </mxCell>
        <mxCell id="uJrMI0u5jXTCqJDOLYF4-179" value="" style="endArrow=classic;html=1;rounded=0;entryX=0.5;entryY=1;entryDx=0;entryDy=0;" edge="1" parent="1" target="uJrMI0u5jXTCqJDOLYF4-132">
          <mxGeometry width="50" height="50" relative="1" as="geometry">
            <mxPoint x="410" y="1326" as="sourcePoint" />
            <mxPoint x="447" y="1328" as="targetPoint" />
          </mxGeometry>
        </mxCell>
        <mxCell id="uJrMI0u5jXTCqJDOLYF4-209" value="&lt;font style=&quot;font-size: 12px;&quot;&gt;X&lt;sub&gt;1&lt;/sub&gt;&lt;/font&gt;" style="edgeLabel;html=1;align=center;verticalAlign=middle;resizable=0;points=[];" vertex="1" connectable="0" parent="uJrMI0u5jXTCqJDOLYF4-179">
          <mxGeometry x="-0.3333" y="2" relative="1" as="geometry">
            <mxPoint as="offset" />
          </mxGeometry>
        </mxCell>
        <mxCell id="uJrMI0u5jXTCqJDOLYF4-181" value="" style="endArrow=classic;html=1;rounded=0;entryX=0.5;entryY=1;entryDx=0;entryDy=0;" edge="1" parent="1" target="uJrMI0u5jXTCqJDOLYF4-133">
          <mxGeometry width="50" height="50" relative="1" as="geometry">
            <mxPoint x="491" y="1326" as="sourcePoint" />
            <mxPoint x="492" y="1292" as="targetPoint" />
          </mxGeometry>
        </mxCell>
        <mxCell id="uJrMI0u5jXTCqJDOLYF4-210" value="&lt;font style=&quot;font-size: 16px;&quot;&gt;x&lt;sub&gt;2&lt;/sub&gt;&lt;/font&gt;" style="edgeLabel;html=1;align=center;verticalAlign=middle;resizable=0;points=[];" vertex="1" connectable="0" parent="uJrMI0u5jXTCqJDOLYF4-181">
          <mxGeometry x="-0.3338" relative="1" as="geometry">
            <mxPoint as="offset" />
          </mxGeometry>
        </mxCell>
        <mxCell id="uJrMI0u5jXTCqJDOLYF4-190" value="" style="endArrow=classic;html=1;rounded=0;exitX=0.5;exitY=1;exitDx=0;exitDy=0;entryX=0.5;entryY=0;entryDx=0;entryDy=0;strokeWidth=4;" edge="1" parent="1" source="uJrMI0u5jXTCqJDOLYF4-132" target="uJrMI0u5jXTCqJDOLYF4-132">
          <mxGeometry width="50" height="50" relative="1" as="geometry">
            <mxPoint x="296" y="1358" as="sourcePoint" />
            <mxPoint x="346" y="1308" as="targetPoint" />
          </mxGeometry>
        </mxCell>
        <mxCell id="uJrMI0u5jXTCqJDOLYF4-192" value="" style="endArrow=classic;html=1;rounded=0;exitX=0.5;exitY=1;exitDx=0;exitDy=0;entryX=0.5;entryY=0;entryDx=0;entryDy=0;strokeWidth=4;" edge="1" parent="1" source="uJrMI0u5jXTCqJDOLYF4-133" target="uJrMI0u5jXTCqJDOLYF4-133">
          <mxGeometry width="50" height="50" relative="1" as="geometry">
            <mxPoint x="549" y="1337" as="sourcePoint" />
            <mxPoint x="549" y="1287" as="targetPoint" />
          </mxGeometry>
        </mxCell>
        <mxCell id="uJrMI0u5jXTCqJDOLYF4-193" value="" style="shape=image;html=1;verticalAlign=top;verticalLabelPosition=bottom;labelBackgroundColor=#ffffff;imageAspect=0;aspect=fixed;image=https://cdn2.iconfinder.com/data/icons/gnomeicontheme/24x24/stock/data/stock_sum.png" vertex="1" parent="1">
          <mxGeometry x="280" y="1151" width="22" height="22" as="geometry" />
        </mxCell>
        <mxCell id="uJrMI0u5jXTCqJDOLYF4-195" value="" style="shape=image;html=1;verticalAlign=top;verticalLabelPosition=bottom;labelBackgroundColor=#ffffff;imageAspect=0;aspect=fixed;image=https://cdn2.iconfinder.com/data/icons/gnomeicontheme/24x24/stock/data/stock_sum.png" vertex="1" parent="1">
          <mxGeometry x="362" y="1151" width="22" height="22" as="geometry" />
        </mxCell>
        <mxCell id="uJrMI0u5jXTCqJDOLYF4-196" value="" style="shape=image;html=1;verticalAlign=top;verticalLabelPosition=bottom;labelBackgroundColor=#ffffff;imageAspect=0;aspect=fixed;image=https://cdn2.iconfinder.com/data/icons/gnomeicontheme/24x24/stock/data/stock_sum.png" vertex="1" parent="1">
          <mxGeometry x="444" y="1151" width="22" height="22" as="geometry" />
        </mxCell>
        <mxCell id="uJrMI0u5jXTCqJDOLYF4-197" value="" style="shape=image;html=1;verticalAlign=top;verticalLabelPosition=bottom;labelBackgroundColor=#ffffff;imageAspect=0;aspect=fixed;image=https://cdn2.iconfinder.com/data/icons/gnomeicontheme/24x24/stock/data/stock_sum.png" vertex="1" parent="1">
          <mxGeometry x="526" y="1151" width="22" height="22" as="geometry" />
        </mxCell>
        <mxCell id="uJrMI0u5jXTCqJDOLYF4-198" value="" style="shape=image;html=1;verticalAlign=top;verticalLabelPosition=bottom;labelBackgroundColor=#ffffff;imageAspect=0;aspect=fixed;image=https://cdn2.iconfinder.com/data/icons/gnomeicontheme/24x24/stock/data/stock_sum.png" vertex="1" parent="1">
          <mxGeometry x="319" y="1035" width="22" height="22" as="geometry" />
        </mxCell>
        <mxCell id="uJrMI0u5jXTCqJDOLYF4-199" value="" style="shape=image;html=1;verticalAlign=top;verticalLabelPosition=bottom;labelBackgroundColor=#ffffff;imageAspect=0;aspect=fixed;image=https://cdn2.iconfinder.com/data/icons/gnomeicontheme/24x24/stock/data/stock_sum.png" vertex="1" parent="1">
          <mxGeometry x="399" y="1035" width="22" height="22" as="geometry" />
        </mxCell>
        <mxCell id="uJrMI0u5jXTCqJDOLYF4-200" value="" style="shape=image;html=1;verticalAlign=top;verticalLabelPosition=bottom;labelBackgroundColor=#ffffff;imageAspect=0;aspect=fixed;image=https://cdn2.iconfinder.com/data/icons/gnomeicontheme/24x24/stock/data/stock_sum.png" vertex="1" parent="1">
          <mxGeometry x="479" y="1035" width="22" height="22" as="geometry" />
        </mxCell>
        <mxCell id="uJrMI0u5jXTCqJDOLYF4-201" value="" style="shape=image;html=1;verticalAlign=top;verticalLabelPosition=bottom;labelBackgroundColor=#ffffff;imageAspect=0;aspect=fixed;image=https://cdn0.iconfinder.com/data/icons/phosphor-regular-vol-3/256/function-128.png" vertex="1" parent="1">
          <mxGeometry x="319" y="1013" width="22" height="22" as="geometry" />
        </mxCell>
        <mxCell id="uJrMI0u5jXTCqJDOLYF4-202" value="" style="shape=image;html=1;verticalAlign=top;verticalLabelPosition=bottom;labelBackgroundColor=#ffffff;imageAspect=0;aspect=fixed;image=https://cdn0.iconfinder.com/data/icons/phosphor-regular-vol-3/256/function-128.png" vertex="1" parent="1">
          <mxGeometry x="399" y="1013" width="22" height="22" as="geometry" />
        </mxCell>
        <mxCell id="uJrMI0u5jXTCqJDOLYF4-204" value="" style="shape=image;html=1;verticalAlign=top;verticalLabelPosition=bottom;labelBackgroundColor=#ffffff;imageAspect=0;aspect=fixed;image=https://cdn0.iconfinder.com/data/icons/phosphor-regular-vol-3/256/function-128.png" vertex="1" parent="1">
          <mxGeometry x="479" y="1013" width="22" height="22" as="geometry" />
        </mxCell>
        <mxCell id="uJrMI0u5jXTCqJDOLYF4-205" value="" style="shape=image;html=1;verticalAlign=top;verticalLabelPosition=bottom;labelBackgroundColor=#ffffff;imageAspect=0;aspect=fixed;image=https://cdn0.iconfinder.com/data/icons/phosphor-regular-vol-3/256/function-128.png" vertex="1" parent="1">
          <mxGeometry x="362" y="1129" width="22" height="22" as="geometry" />
        </mxCell>
        <mxCell id="uJrMI0u5jXTCqJDOLYF4-206" value="" style="shape=image;html=1;verticalAlign=top;verticalLabelPosition=bottom;labelBackgroundColor=#ffffff;imageAspect=0;aspect=fixed;image=https://cdn0.iconfinder.com/data/icons/phosphor-regular-vol-3/256/function-128.png" vertex="1" parent="1">
          <mxGeometry x="444" y="1129" width="22" height="22" as="geometry" />
        </mxCell>
        <mxCell id="uJrMI0u5jXTCqJDOLYF4-207" value="" style="shape=image;html=1;verticalAlign=top;verticalLabelPosition=bottom;labelBackgroundColor=#ffffff;imageAspect=0;aspect=fixed;image=https://cdn0.iconfinder.com/data/icons/phosphor-regular-vol-3/256/function-128.png" vertex="1" parent="1">
          <mxGeometry x="526" y="1129" width="22" height="22" as="geometry" />
        </mxCell>
        <mxCell id="uJrMI0u5jXTCqJDOLYF4-208" value="" style="shape=image;html=1;verticalAlign=top;verticalLabelPosition=bottom;labelBackgroundColor=#ffffff;imageAspect=0;aspect=fixed;image=https://cdn0.iconfinder.com/data/icons/phosphor-regular-vol-3/256/function-128.png" vertex="1" parent="1">
          <mxGeometry x="280" y="1129" width="22" height="22" as="geometry" />
        </mxCell>
        <mxCell id="uJrMI0u5jXTCqJDOLYF4-211" value="" style="shape=curlyBracket;whiteSpace=wrap;html=1;rounded=1;flipH=1;labelPosition=right;verticalLabelPosition=middle;align=left;verticalAlign=middle;" vertex="1" parent="1">
          <mxGeometry x="526" y="1234" width="20" height="56" as="geometry" />
        </mxCell>
        <mxCell id="uJrMI0u5jXTCqJDOLYF4-212" value="" style="shape=curlyBracket;whiteSpace=wrap;html=1;rounded=1;flipH=1;labelPosition=right;verticalLabelPosition=middle;align=left;verticalAlign=middle;" vertex="1" parent="1">
          <mxGeometry x="570" y="1123" width="20" height="56" as="geometry" />
        </mxCell>
        <mxCell id="uJrMI0u5jXTCqJDOLYF4-213" value="" style="shape=curlyBracket;whiteSpace=wrap;html=1;rounded=1;flipH=1;labelPosition=right;verticalLabelPosition=middle;align=left;verticalAlign=middle;" vertex="1" parent="1">
          <mxGeometry x="530" y="1007" width="20" height="56" as="geometry" />
        </mxCell>
        <mxCell id="uJrMI0u5jXTCqJDOLYF4-214" value="&lt;font style=&quot;font-size: 14px;&quot;&gt;&lt;b&gt;Warstwa Wyjściowa&lt;/b&gt;&lt;/font&gt;" style="text;html=1;align=center;verticalAlign=middle;resizable=0;points=[];autosize=1;strokeColor=none;fillColor=none;" vertex="1" parent="1">
          <mxGeometry x="544" y="1021" width="150" height="28" as="geometry" />
        </mxCell>
        <mxCell id="uJrMI0u5jXTCqJDOLYF4-215" value="&lt;font style=&quot;font-size: 14px;&quot;&gt;&lt;b&gt;Warstwa Ukryta&lt;/b&gt;&lt;/font&gt;" style="text;html=1;align=center;verticalAlign=middle;resizable=0;points=[];autosize=1;strokeColor=none;fillColor=none;" vertex="1" parent="1">
          <mxGeometry x="604" y="1139" width="123" height="28" as="geometry" />
        </mxCell>
        <mxCell id="uJrMI0u5jXTCqJDOLYF4-216" value="&lt;font style=&quot;font-size: 14px;&quot;&gt;&lt;b&gt;Warstwa Wejściowa&lt;/b&gt;&lt;/font&gt;" style="text;html=1;align=center;verticalAlign=middle;resizable=0;points=[];autosize=1;strokeColor=none;fillColor=none;" vertex="1" parent="1">
          <mxGeometry x="546" y="1248" width="150" height="28" as="geometry" />
        </mxCell>
      </root>
    </mxGraphModel>
  </diagram>
</mxfile>
